<?xml version="1.0" encoding="UTF-8" standalone="no"?>
<!-- Generator: Adobe Illustrator 19.0.0, SVG Export Plug-In . SVG Version: 6.00 Build 0)  -->

<svg
   xmlns:dc="http://purl.org/dc/elements/1.1/"
   xmlns:cc="http://creativecommons.org/ns#"
   xmlns:rdf="http://www.w3.org/1999/02/22-rdf-syntax-ns#"
   xmlns:svg="http://www.w3.org/2000/svg"
   xmlns="http://www.w3.org/2000/svg"
   xmlns:sodipodi="http://sodipodi.sourceforge.net/DTD/sodipodi-0.dtd"
   xmlns:inkscape="http://www.inkscape.org/namespaces/inkscape"
   version="1.1"
   id="Capa_1"
   x="0px"
   y="0px"
   viewBox="0 0 487.622 487.622"
   style="enable-background:new 0 0 487.622 487.622;"
   xml:space="preserve"
   sodipodi:docname="move_right.svg"
   inkscape:version="0.92.4 5da689c313, 2019-01-14"><metadata
   id="metadata49"><rdf:RDF><cc:Work
       rdf:about=""><dc:format>image/svg+xml</dc:format><dc:type
         rdf:resource="http://purl.org/dc/dcmitype/StillImage" /><dc:title></dc:title></cc:Work></rdf:RDF></metadata><defs
   id="defs47" /><sodipodi:namedview
   pagecolor="#ffffff"
   bordercolor="#666666"
   borderopacity="1"
   objecttolerance="10"
   gridtolerance="10"
   guidetolerance="10"
   inkscape:pageopacity="0"
   inkscape:pageshadow="2"
   inkscape:window-width="640"
   inkscape:window-height="480"
   id="namedview45"
   showgrid="false"
   inkscape:zoom="0.48398144"
   inkscape:cx="243.811"
   inkscape:cy="243.811"
   inkscape:window-x="0"
   inkscape:window-y="28"
   inkscape:window-maximized="0"
   inkscape:current-layer="Capa_1" />
<g
   id="g12"
   transform="matrix(-1,0,0,1,487.622,-9.2773437e-6)">
	<g
   id="g10">
		<circle
   style="fill:#c4e15e"
   cx="243.811"
   cy="243.811"
   r="243.811"
   id="circle2" />
		<path
   style="fill:#c4e15e"
   d="m 487.479,251.765 -87.965,-69.016 -80.212,0.008 -86.559,-52.091 2.058,226.284 133.459,96.54 C 437.592,412.251 484.726,337.617 487.479,251.765 Z"
   id="path4"
   inkscape:connector-curvature="0" />
		<path
   style="opacity:0.37000002;fill:#b5d24f;enable-background:new"
   d="m 487.479,251.765 -87.965,-69.016 -80.212,0.008 -86.559,-52.091 2.058,226.284 133.459,96.54 C 437.592,412.251 484.726,337.617 487.479,251.765 Z"
   id="path6"
   inkscape:connector-curvature="0" />
		<polygon
   style="fill:#ffffff"
   points="399.514,182.749 399.514,304.873 234.801,304.873 234.801,356.951 88.109,243.809 234.801,130.666 234.801,182.749 "
   id="polygon8" />
	</g>
</g>
<g
   id="g14"
   transform="matrix(-1,0,0,1,-7.2265616e-7,-487.62203)">
</g>
<g
   id="g16"
   transform="matrix(-1,0,0,1,-7.2265616e-7,-487.62203)">
</g>
<g
   id="g18"
   transform="matrix(-1,0,0,1,-7.2265616e-7,-487.62203)">
</g>
<g
   id="g20"
   transform="matrix(-1,0,0,1,-7.2265616e-7,-487.62203)">
</g>
<g
   id="g22"
   transform="matrix(-1,0,0,1,-7.2265616e-7,-487.62203)">
</g>
<g
   id="g24"
   transform="matrix(-1,0,0,1,-7.2265616e-7,-487.62203)">
</g>
<g
   id="g26"
   transform="matrix(-1,0,0,1,-7.2265616e-7,-487.62203)">
</g>
<g
   id="g28"
   transform="matrix(-1,0,0,1,-7.2265616e-7,-487.62203)">
</g>
<g
   id="g30"
   transform="matrix(-1,0,0,1,-7.2265616e-7,-487.62203)">
</g>
<g
   id="g32"
   transform="matrix(-1,0,0,1,-7.2265616e-7,-487.62203)">
</g>
<g
   id="g34"
   transform="matrix(-1,0,0,1,-7.2265616e-7,-487.62203)">
</g>
<g
   id="g36"
   transform="matrix(-1,0,0,1,-7.2265616e-7,-487.62203)">
</g>
<g
   id="g38"
   transform="matrix(-1,0,0,1,-7.2265616e-7,-487.62203)">
</g>
<g
   id="g40"
   transform="matrix(-1,0,0,1,-7.2265616e-7,-487.62203)">
</g>
<g
   id="g42"
   transform="matrix(-1,0,0,1,-7.2265616e-7,-487.62203)">
</g>
</svg>