<?xml version="1.0" encoding="UTF-8" standalone="no"?>
<!-- Generator: Adobe Illustrator 19.0.0, SVG Export Plug-In . SVG Version: 6.00 Build 0)  -->

<svg
   xmlns:dc="http://purl.org/dc/elements/1.1/"
   xmlns:cc="http://creativecommons.org/ns#"
   xmlns:rdf="http://www.w3.org/1999/02/22-rdf-syntax-ns#"
   xmlns:svg="http://www.w3.org/2000/svg"
   xmlns="http://www.w3.org/2000/svg"
   xmlns:sodipodi="http://sodipodi.sourceforge.net/DTD/sodipodi-0.dtd"
   xmlns:inkscape="http://www.inkscape.org/namespaces/inkscape"
   version="1.1"
   id="Capa_1"
   x="0px"
   y="0px"
   viewBox="0 0 487.622 487.622"
   style="enable-background:new 0 0 487.622 487.622;"
   xml:space="preserve"
   sodipodi:docname="move_left.svg"
   inkscape:version="0.92.4 5da689c313, 2019-01-14"><metadata
   id="metadata49"><rdf:RDF><cc:Work
       rdf:about=""><dc:format>image/svg+xml</dc:format><dc:type
         rdf:resource="http://purl.org/dc/dcmitype/StillImage" /><dc:title></dc:title></cc:Work></rdf:RDF></metadata><defs
   id="defs47" /><sodipodi:namedview
   pagecolor="#ffffff"
   bordercolor="#666666"
   borderopacity="1"
   objecttolerance="10"
   gridtolerance="10"
   guidetolerance="10"
   inkscape:pageopacity="0"
   inkscape:pageshadow="2"
   inkscape:window-width="1920"
   inkscape:window-height="1024"
   id="namedview45"
   showgrid="false"
   inkscape:zoom="0.48398144"
   inkscape:cx="243.811"
   inkscape:cy="243.811"
   inkscape:window-x="0"
   inkscape:window-y="28"
   inkscape:window-maximized="1"
   inkscape:current-layer="Capa_1" />
<g
   id="g12">
	<g
   id="g10">
		<circle
   style="fill:#C4E15E;"
   cx="243.811"
   cy="243.811"
   r="243.811"
   id="circle2" />
		<path
   style="fill:#C4E15E;"
   d="M487.479,251.765l-87.965-69.016l-80.212,0.008l-86.559-52.091l2.058,226.284l133.459,96.54    C437.592,412.251,484.726,337.617,487.479,251.765z"
   id="path4" />
		<path
   style="opacity:0.37;fill:#B5D24F;enable-background:new    ;"
   d="M487.479,251.765l-87.965-69.016l-80.212,0.008    l-86.559-52.091l2.058,226.284l133.459,96.54C437.592,412.251,484.726,337.617,487.479,251.765z"
   id="path6" />
		<polygon
   style="fill:#FFFFFF;"
   points="88.109,243.809 234.801,130.666 234.801,182.749 399.514,182.749 399.514,304.873     234.801,304.873 234.801,356.951   "
   id="polygon8" />
	</g>
</g>
<g
   id="g14">
</g>
<g
   id="g16">
</g>
<g
   id="g18">
</g>
<g
   id="g20">
</g>
<g
   id="g22">
</g>
<g
   id="g24">
</g>
<g
   id="g26">
</g>
<g
   id="g28">
</g>
<g
   id="g30">
</g>
<g
   id="g32">
</g>
<g
   id="g34">
</g>
<g
   id="g36">
</g>
<g
   id="g38">
</g>
<g
   id="g40">
</g>
<g
   id="g42">
</g>
<path
   style="fill:#ff5555;stroke-width:2.06619501"
   d="M 194.63556,481.68434 C 41.966407,448.67895 -40.178242,288.28025 22.033957,144.65606 44.158624,93.578658 93.578658,44.158624 144.65606,22.033957 224.6376,-12.610819 314.06258,-3.8728913 383.6924,45.390768 c 61.73869,43.680628 97.55934,108.674762 102.18246,185.403212 3.2333,53.66232 -8.99816,100.85205 -37.60124,145.0679 -24.46877,37.82486 -54.03337,63.92553 -95.57414,84.37619 -38.91381,19.1574 -58.80992,23.9578 -103.30975,24.92577 -29.65905,0.64515 -38.18,0.10372 -54.75417,-3.4795 z M 317.6359,306.21009 h 81.55297 v -61.98585 -61.98585 h -81.61471 -81.6147 v -25.82743 c 0,-14.20509 -0.52741,-25.82744 -1.17205,-25.82744 -1.02462,0 -126.85397,96.4038 -141.920367,108.73188 l -5.690453,4.65623 73.87489,57.02293 73.87489,57.02295 0.57828,-25.9037 0.57827,-25.90372 z"
   id="path55"
   inkscape:connector-curvature="0" /></svg>