<?xml version="1.0" encoding="UTF-8" standalone="no"?>
<!-- Generator: Adobe Illustrator 19.0.0, SVG Export Plug-In . SVG Version: 6.00 Build 0)  -->

<svg
   xmlns:dc="http://purl.org/dc/elements/1.1/"
   xmlns:cc="http://creativecommons.org/ns#"
   xmlns:rdf="http://www.w3.org/1999/02/22-rdf-syntax-ns#"
   xmlns:svg="http://www.w3.org/2000/svg"
   xmlns="http://www.w3.org/2000/svg"
   xmlns:sodipodi="http://sodipodi.sourceforge.net/DTD/sodipodi-0.dtd"
   xmlns:inkscape="http://www.inkscape.org/namespaces/inkscape"
   version="1.1"
   id="Capa_1"
   x="0px"
   y="0px"
   viewBox="0 0 487.622 487.622"
   style="enable-background:new 0 0 487.622 487.622;"
   xml:space="preserve"
   sodipodi:docname="move_right.svg"
   inkscape:version="0.92.4 5da689c313, 2019-01-14"><metadata
   id="metadata49"><rdf:RDF><cc:Work
       rdf:about=""><dc:format>image/svg+xml</dc:format><dc:type
         rdf:resource="http://purl.org/dc/dcmitype/StillImage" /><dc:title></dc:title></cc:Work></rdf:RDF></metadata><defs
   id="defs47" /><sodipodi:namedview
   pagecolor="#ffffff"
   bordercolor="#666666"
   borderopacity="1"
   objecttolerance="10"
   gridtolerance="10"
   guidetolerance="10"
   inkscape:pageopacity="0"
   inkscape:pageshadow="2"
   inkscape:window-width="1920"
   inkscape:window-height="1024"
   id="namedview45"
   showgrid="false"
   inkscape:zoom="0.48398144"
   inkscape:cx="243.811"
   inkscape:cy="243.811"
   inkscape:window-x="0"
   inkscape:window-y="28"
   inkscape:window-maximized="1"
   inkscape:current-layer="Capa_1" />
<g
   id="g12"
   transform="rotate(180,243.811,243.811)">
	<g
   id="g10">
		<circle
   style="fill:#c4e15e"
   cx="243.811"
   cy="243.811"
   r="243.811"
   id="circle2" />
		<path
   style="fill:#c4e15e"
   d="m 487.479,251.765 -87.965,-69.016 -80.212,0.008 -86.559,-52.091 2.058,226.284 133.459,96.54 C 437.592,412.251 484.726,337.617 487.479,251.765 Z"
   id="path4"
   inkscape:connector-curvature="0" />
		<path
   style="opacity:0.37000002;fill:#b5d24f;enable-background:new"
   d="m 487.479,251.765 -87.965,-69.016 -80.212,0.008 -86.559,-52.091 2.058,226.284 133.459,96.54 C 437.592,412.251 484.726,337.617 487.479,251.765 Z"
   id="path6"
   inkscape:connector-curvature="0" />
		<polygon
   style="fill:#ffffff"
   points="234.801,182.749 399.514,182.749 399.514,304.873 234.801,304.873 234.801,356.951 88.109,243.809 234.801,130.666 "
   id="polygon8" />
	</g>
</g>
<g
   id="g14"
   transform="rotate(180,-3.6132811e-7,487.62201)">
</g>
<g
   id="g16"
   transform="rotate(180,-3.6132811e-7,487.62201)">
</g>
<g
   id="g18"
   transform="rotate(180,-3.6132811e-7,487.62201)">
</g>
<g
   id="g20"
   transform="rotate(180,-3.6132811e-7,487.62201)">
</g>
<g
   id="g22"
   transform="rotate(180,-3.6132811e-7,487.62201)">
</g>
<g
   id="g24"
   transform="rotate(180,-3.6132811e-7,487.62201)">
</g>
<g
   id="g26"
   transform="rotate(180,-3.6132811e-7,487.62201)">
</g>
<g
   id="g28"
   transform="rotate(180,-3.6132811e-7,487.62201)">
</g>
<g
   id="g30"
   transform="rotate(180,-3.6132811e-7,487.62201)">
</g>
<g
   id="g32"
   transform="rotate(180,-3.6132811e-7,487.62201)">
</g>
<g
   id="g34"
   transform="rotate(180,-3.6132811e-7,487.62201)">
</g>
<g
   id="g36"
   transform="rotate(180,-3.6132811e-7,487.62201)">
</g>
<g
   id="g38"
   transform="rotate(180,-3.6132811e-7,487.62201)">
</g>
<g
   id="g40"
   transform="rotate(180,-3.6132811e-7,487.62201)">
</g>
<g
   id="g42"
   transform="rotate(180,-3.6132811e-7,487.62201)">
</g>
<path
   style="fill:#ff5555;stroke-width:2.06619501"
   d="M 292.86344,4.8120668 C 445.53259,37.817457 527.67724,198.21616 465.46504,341.84035 443.34038,392.91775 393.92034,442.33778 342.84294,464.46245 262.8614,499.10722 173.43642,490.3693 103.8066,441.10564 42.067914,397.42501 6.2472637,332.43088 1.6241437,255.70243 -1.6091563,202.04011 10.622304,154.85038 39.225384,110.63453 63.694154,72.809667 93.258754,46.708997 134.79952,26.258337 173.71333,7.1009368 193.60944,2.3005368 238.10927,1.3325668 c 29.65905,-0.64515003 38.18,-0.10372 54.75417,3.4795 z M 169.8631,180.28632 H 88.310134 v 61.98585 61.98585 h 81.614706 81.6147 v 25.82743 c 0,14.20509 0.52741,25.82744 1.17205,25.82744 1.02462,0 126.85397,-96.4038 141.92037,-108.73188 l 5.69045,-4.65623 -73.87489,-57.02293 -73.87489,-57.02295 -0.57828,25.9037 -0.57827,25.90372 z"
   id="path55"
   inkscape:connector-curvature="0" /></svg>